# xmcd CD database file
#
# Track frame offsets:
#	150
#	15259
#	40487
#	60191
#	79335
#	95900
#	115045
#	131316
#	158772
#	190105
#
# Disc length: 2729 seconds
#
# Revision: 0
# Processed by: cddbd v1.4PL0 Copyright (c) Steve Scherf et al.
# Submitted via: CDex 1.40Release
#
DISCID=720aa70a
DTITLE=Jerry Jeff Walker - Viva Terlingua
DYEAR=1973
DGENRE=Country
TTITLE0=Gettin' By
TTITLE1=Desperados Waiting for the Train
TTITLE2=Sangria Wine
TTITLE3=Little Bird
TTITLE4=Get It Out
TTITLE5=Up Against the Wall, Redneck Mother
TTITLE6=Backslider's Wine
TTITLE7=Wheel
TTITLE8=London Homesick Blues
TTITLE9=Smiling Faces
EXTD=YEAR: 1973 ID3G: 2
EXTT0=
EXTT1=
EXTT2=
EXTT3=
EXTT4=
EXTT5=
EXTT6=
EXTT7=
EXTT8=
EXTT9=
PLAYORDER=
